<?xml version="1.0" encoding="UTF-8" standalone="no"?>
<!DOCTYPE svg PUBLIC "-//W3C//DTD SVG 1.1//EN"
 "http://www.w3.org/Graphics/SVG/1.1/DTD/svg11.dtd">
<!-- Generated by graphviz version 2.38.0 (20140413.2041)
 -->
<!-- Title: snakemake_dag Pages: 1 -->
<svg width="1010pt" height="764pt"
 viewBox="0.00 0.00 1010.00 764.00" xmlns="http://www.w3.org/2000/svg" xmlns:xlink="http://www.w3.org/1999/xlink">
<g id="graph0" class="graph" transform="scale(1 1) rotate(0) translate(4 760)">
<title>snakemake_dag</title>
<polygon fill="white" stroke="none" points="-4,4 -4,-760 1006,-760 1006,4 -4,4"/>
<!-- 0 -->
<g id="node1" class="node"><title>0</title>
<path fill="none" stroke="#97d856" stroke-width="2" stroke-dasharray="5,2" d="M522,-36C522,-36 492,-36 492,-36 486,-36 480,-30 480,-24 480,-24 480,-12 480,-12 480,-6 486,-0 492,-0 492,-0 522,-0 522,-0 528,-0 534,-6 534,-12 534,-12 534,-24 534,-24 534,-30 528,-36 522,-36"/>
<text text-anchor="middle" x="507" y="-15" font-family="sans" font-size="10.00">all</text>
</g>
<!-- 1 -->
<g id="node2" class="node"><title>1</title>
<path fill="none" stroke="#56a9d8" stroke-width="2" stroke-dasharray="5,2" d="M208.44,-612C208.44,-612 147.56,-612 147.56,-612 141.56,-612 135.56,-606 135.56,-600 135.56,-600 135.56,-588 135.56,-588 135.56,-582 141.56,-576 147.56,-576 147.56,-576 208.44,-576 208.44,-576 214.44,-576 220.44,-582 220.44,-588 220.44,-588 220.44,-600 220.44,-600 220.44,-606 214.44,-612 208.44,-612"/>
<text text-anchor="middle" x="178" y="-591" font-family="sans" font-size="10.00">manhattan_plot</text>
</g>
<!-- 1&#45;&gt;0 -->
<g id="edge1" class="edge"><title>1&#45;&gt;0</title>
<path fill="none" stroke="grey" stroke-width="2" d="M135.365,-579.962C82.7048,-560.9 0,-519.983 0,-451 0,-451 0,-451 0,-161 0,-105.06 38.77,-96.6217 89,-72 155.747,-39.2819 379.969,-25.1089 469.558,-20.6566"/>
<polygon fill="grey" stroke="grey" stroke-width="2" points="469.977,-24.1405 479.796,-20.1612 469.639,-17.1487 469.977,-24.1405"/>
</g>
<!-- 2 -->
<g id="node3" class="node"><title>2</title>
<path fill="none" stroke="#d8c356" stroke-width="2" stroke-dasharray="5,2" d="M480.096,-180C480.096,-180 377.904,-180 377.904,-180 371.904,-180 365.904,-174 365.904,-168 365.904,-168 365.904,-156 365.904,-156 365.904,-150 371.904,-144 377.904,-144 377.904,-144 480.096,-144 480.096,-144 486.096,-144 492.096,-150 492.096,-156 492.096,-156 492.096,-168 492.096,-168 492.096,-174 486.096,-180 480.096,-180"/>
<text text-anchor="middle" x="429" y="-159" font-family="sans" font-size="10.00">merge_mrpresso_MRdat</text>
</g>
<!-- 2&#45;&gt;0 -->
<g id="edge2" class="edge"><title>2&#45;&gt;0</title>
<path fill="none" stroke="grey" stroke-width="2" d="M438.409,-143.871C451.878,-119.35 476.771,-74.0321 492.576,-45.2589"/>
<polygon fill="grey" stroke="grey" stroke-width="2" points="495.811,-46.6391 497.558,-36.1893 489.676,-43.269 495.811,-46.6391"/>
</g>
<!-- 3 -->
<g id="node4" class="node"><title>3</title>
<path fill="none" stroke="#56d882" stroke-width="2" stroke-dasharray="5,2" d="M426.832,-108C426.832,-108 327.168,-108 327.168,-108 321.168,-108 315.168,-102 315.168,-96 315.168,-96 315.168,-84 315.168,-84 315.168,-78 321.168,-72 327.168,-72 327.168,-72 426.832,-72 426.832,-72 432.832,-72 438.832,-78 438.832,-84 438.832,-84 438.832,-96 438.832,-96 438.832,-102 432.832,-108 426.832,-108"/>
<text text-anchor="middle" x="377" y="-87" font-family="sans" font-size="10.00">merge_mrpresso_global</text>
</g>
<!-- 3&#45;&gt;0 -->
<g id="edge3" class="edge"><title>3&#45;&gt;0</title>
<path fill="none" stroke="grey" stroke-width="2" d="M408.802,-71.8761C427.62,-61.743 451.514,-48.8773 471.02,-38.374"/>
<polygon fill="grey" stroke="grey" stroke-width="2" points="472.774,-41.4045 479.92,-33.5818 469.455,-35.2412 472.774,-41.4045"/>
</g>
<!-- 4 -->
<g id="node5" class="node"><title>4</title>
<path fill="none" stroke="#61d856" stroke-width="2" stroke-dasharray="5,2" d="M587.445,-108C587.445,-108 506.555,-108 506.555,-108 500.555,-108 494.555,-102 494.555,-96 494.555,-96 494.555,-84 494.555,-84 494.555,-78 500.555,-72 506.555,-72 506.555,-72 587.445,-72 587.445,-72 593.445,-72 599.445,-78 599.445,-84 599.445,-84 599.445,-96 599.445,-96 599.445,-102 593.445,-108 587.445,-108"/>
<text text-anchor="middle" x="547" y="-87" font-family="sans" font-size="10.00">merge_heterogenity</text>
</g>
<!-- 4&#45;&gt;0 -->
<g id="edge4" class="edge"><title>4&#45;&gt;0</title>
<path fill="none" stroke="grey" stroke-width="2" d="M537.112,-71.6966C532.511,-63.6436 526.94,-53.8945 521.847,-44.9824"/>
<polygon fill="grey" stroke="grey" stroke-width="2" points="524.774,-43.0503 516.774,-36.1043 518.696,-46.5233 524.774,-43.0503"/>
</g>
<!-- 5 -->
<g id="node6" class="node"><title>5</title>
<path fill="none" stroke="#80d856" stroke-width="2" stroke-dasharray="5,2" d="M680.984,-108C680.984,-108 629.016,-108 629.016,-108 623.016,-108 617.016,-102 617.016,-96 617.016,-96 617.016,-84 617.016,-84 617.016,-78 623.016,-72 629.016,-72 629.016,-72 680.984,-72 680.984,-72 686.984,-72 692.984,-78 692.984,-84 692.984,-84 692.984,-96 692.984,-96 692.984,-102 686.984,-108 680.984,-108"/>
<text text-anchor="middle" x="655" y="-87" font-family="sans" font-size="10.00">merge_egger</text>
</g>
<!-- 5&#45;&gt;0 -->
<g id="edge5" class="edge"><title>5&#45;&gt;0</title>
<path fill="none" stroke="grey" stroke-width="2" d="M618.795,-71.8761C595.78,-60.9904 566.097,-46.9511 543.101,-36.0749"/>
<polygon fill="grey" stroke="grey" stroke-width="2" points="544.549,-32.8878 534.012,-31.7761 541.556,-39.2157 544.549,-32.8878"/>
</g>
<!-- 6 -->
<g id="node7" class="node"><title>6</title>
<path fill="none" stroke="#56d8d0" stroke-width="2" stroke-dasharray="5,2" d="M789.52,-108C789.52,-108 722.48,-108 722.48,-108 716.48,-108 710.48,-102 710.48,-96 710.48,-96 710.48,-84 710.48,-84 710.48,-78 716.48,-72 722.48,-72 722.48,-72 789.52,-72 789.52,-72 795.52,-72 801.52,-78 801.52,-84 801.52,-84 801.52,-96 801.52,-96 801.52,-102 795.52,-108 789.52,-108"/>
<text text-anchor="middle" x="756" y="-87" font-family="sans" font-size="10.00">merge_mrresults</text>
</g>
<!-- 6&#45;&gt;0 -->
<g id="edge6" class="edge"><title>6&#45;&gt;0</title>
<path fill="none" stroke="grey" stroke-width="2" d="M710.374,-74.4966C707.544,-73.6403 704.735,-72.8019 702,-72 647.184,-55.9291 583.212,-38.8607 543.906,-28.5651"/>
<polygon fill="grey" stroke="grey" stroke-width="2" points="544.785,-25.1772 534.225,-26.0355 543.015,-31.9499 544.785,-25.1772"/>
</g>
<!-- 7 -->
<g id="node8" class="node"><title>7</title>
<path fill="none" stroke="#d85656" stroke-width="2" stroke-dasharray="5,2" d="M156.469,-108C156.469,-108 109.531,-108 109.531,-108 103.531,-108 97.5307,-102 97.5307,-96 97.5307,-96 97.5307,-84 97.5307,-84 97.5307,-78 103.531,-72 109.531,-72 109.531,-72 156.469,-72 156.469,-72 162.469,-72 168.469,-78 168.469,-84 168.469,-84 168.469,-96 168.469,-96 168.469,-102 162.469,-108 156.469,-108"/>
<text text-anchor="middle" x="133" y="-87" font-family="sans" font-size="10.00">html_Report</text>
</g>
<!-- 7&#45;&gt;0 -->
<g id="edge7" class="edge"><title>7&#45;&gt;0</title>
<path fill="none" stroke="grey" stroke-width="2" d="M168.522,-82.3515C239.429,-69.0802 397.884,-39.4228 469.993,-25.9264"/>
<polygon fill="grey" stroke="grey" stroke-width="2" points="470.8,-29.3363 479.985,-24.0562 469.512,-22.4558 470.8,-29.3363"/>
</g>
<!-- 8 -->
<g id="node9" class="node"><title>8</title>
<path fill="none" stroke="#d85656" stroke-width="2" stroke-dasharray="5,2" d="M930.469,-108C930.469,-108 883.531,-108 883.531,-108 877.531,-108 871.531,-102 871.531,-96 871.531,-96 871.531,-84 871.531,-84 871.531,-78 877.531,-72 883.531,-72 883.531,-72 930.469,-72 930.469,-72 936.469,-72 942.469,-78 942.469,-84 942.469,-84 942.469,-96 942.469,-96 942.469,-102 936.469,-108 930.469,-108"/>
<text text-anchor="middle" x="907" y="-87" font-family="sans" font-size="10.00">html_Report</text>
</g>
<!-- 8&#45;&gt;0 -->
<g id="edge8" class="edge"><title>8&#45;&gt;0</title>
<path fill="none" stroke="grey" stroke-width="2" d="M871.443,-82.6803C853.349,-79.4701 831.005,-75.5151 811,-72 714.881,-55.1107 601.628,-35.4216 544.293,-25.4689"/>
<polygon fill="grey" stroke="grey" stroke-width="2" points="544.706,-21.9883 534.255,-23.7266 543.509,-28.8852 544.706,-21.9883"/>
</g>
<!-- 9 -->
<g id="node10" class="node"><title>9</title>
<path fill="none" stroke="#d8ac56" stroke-width="2" stroke-dasharray="5,2" d="M335.601,-756C335.601,-756 258.399,-756 258.399,-756 252.399,-756 246.399,-750 246.399,-744 246.399,-744 246.399,-732 246.399,-732 246.399,-726 252.399,-720 258.399,-720 258.399,-720 335.601,-720 335.601,-720 341.601,-720 347.601,-726 347.601,-732 347.601,-732 347.601,-744 347.601,-744 347.601,-750 341.601,-756 335.601,-756"/>
<text text-anchor="middle" x="297" y="-740" font-family="sans" font-size="10.00">FormatExposure</text>
<text text-anchor="middle" x="297" y="-730" font-family="sans" font-size="10.00">ExposureCode: crp</text>
</g>
<!-- 9&#45;&gt;1 -->
<g id="edge9" class="edge"><title>9&#45;&gt;1</title>
<path fill="none" stroke="grey" stroke-width="2" d="M273.308,-719.919C260.785,-710.218 245.64,-697.365 234,-684 217.077,-664.568 201.791,-639.507 191.481,-620.933"/>
<polygon fill="grey" stroke="grey" stroke-width="2" points="194.549,-619.247 186.698,-612.132 188.398,-622.589 194.549,-619.247"/>
</g>
<!-- 10 -->
<g id="node11" class="node"><title>10</title>
<path fill="none" stroke="#b6d856" stroke-width="2" stroke-dasharray="5,2" d="M285,-684C285,-684 255,-684 255,-684 249,-684 243,-678 243,-672 243,-672 243,-660 243,-660 243,-654 249,-648 255,-648 255,-648 285,-648 285,-648 291,-648 297,-654 297,-660 297,-660 297,-672 297,-672 297,-678 291,-684 285,-684"/>
<text text-anchor="middle" x="270" y="-663" font-family="sans" font-size="10.00">clump</text>
</g>
<!-- 9&#45;&gt;10 -->
<g id="edge33" class="edge"><title>9&#45;&gt;10</title>
<path fill="none" stroke="grey" stroke-width="2" d="M290.326,-719.697C287.285,-711.813 283.617,-702.304 280.239,-693.546"/>
<polygon fill="grey" stroke="grey" stroke-width="2" points="283.462,-692.175 276.597,-684.104 276.931,-694.694 283.462,-692.175"/>
</g>
<!-- 17 -->
<g id="node18" class="node"><title>17</title>
<path fill="none" stroke="#d88d56" stroke-width="2" stroke-dasharray="5,2" d="M315.88,-612C315.88,-612 250.12,-612 250.12,-612 244.12,-612 238.12,-606 238.12,-600 238.12,-600 238.12,-588 238.12,-588 238.12,-582 244.12,-576 250.12,-576 250.12,-576 315.88,-576 315.88,-576 321.88,-576 327.88,-582 327.88,-588 327.88,-588 327.88,-600 327.88,-600 327.88,-606 321.88,-612 315.88,-612"/>
<text text-anchor="middle" x="283" y="-596" font-family="sans" font-size="10.00">ExposureSnps</text>
<text text-anchor="middle" x="283" y="-586" font-family="sans" font-size="10.00">Pthreshold: 5e&#45;8</text>
</g>
<!-- 9&#45;&gt;17 -->
<g id="edge40" class="edge"><title>9&#45;&gt;17</title>
<path fill="none" stroke="grey" stroke-width="2" d="M301.818,-719.777C306.152,-701.73 311.115,-672.634 306,-648 304.124,-638.965 300.626,-629.579 296.914,-621.261"/>
<polygon fill="grey" stroke="grey" stroke-width="2" points="299.999,-619.598 292.542,-612.072 293.678,-622.606 299.999,-619.598"/>
</g>
<!-- 20 -->
<g id="node21" class="node"><title>20</title>
<path fill="none" stroke="#d88d56" stroke-width="2" stroke-dasharray="5,2" d="M592.88,-612C592.88,-612 527.12,-612 527.12,-612 521.12,-612 515.12,-606 515.12,-600 515.12,-600 515.12,-588 515.12,-588 515.12,-582 521.12,-576 527.12,-576 527.12,-576 592.88,-576 592.88,-576 598.88,-576 604.88,-582 604.88,-588 604.88,-588 604.88,-600 604.88,-600 604.88,-606 598.88,-612 592.88,-612"/>
<text text-anchor="middle" x="560" y="-596" font-family="sans" font-size="10.00">ExposureSnps</text>
<text text-anchor="middle" x="560" y="-586" font-family="sans" font-size="10.00">Pthreshold: 5e&#45;6</text>
</g>
<!-- 9&#45;&gt;20 -->
<g id="edge47" class="edge"><title>9&#45;&gt;20</title>
<path fill="none" stroke="grey" stroke-width="2" d="M328.724,-719.871C376.411,-694.124 466.564,-645.448 519.121,-617.072"/>
<polygon fill="grey" stroke="grey" stroke-width="2" points="521.027,-620.02 528.164,-612.189 517.701,-613.861 521.027,-620.02"/>
</g>
<!-- 10&#45;&gt;1 -->
<g id="edge10" class="edge"><title>10&#45;&gt;1</title>
<path fill="none" stroke="grey" stroke-width="2" d="M247.258,-647.697C235.56,-638.796 221.139,-627.823 208.49,-618.199"/>
<polygon fill="grey" stroke="grey" stroke-width="2" points="210.558,-615.374 200.48,-612.104 206.319,-620.945 210.558,-615.374"/>
</g>
<!-- 10&#45;&gt;17 -->
<g id="edge41" class="edge"><title>10&#45;&gt;17</title>
<path fill="none" stroke="grey" stroke-width="2" d="M273.213,-647.697C274.646,-639.983 276.368,-630.712 277.965,-622.112"/>
<polygon fill="grey" stroke="grey" stroke-width="2" points="281.439,-622.575 279.823,-612.104 274.556,-621.297 281.439,-622.575"/>
</g>
<!-- 10&#45;&gt;20 -->
<g id="edge48" class="edge"><title>10&#45;&gt;20</title>
<path fill="none" stroke="grey" stroke-width="2" d="M297.022,-658.477C344.306,-647.064 442.922,-623.26 505.043,-608.265"/>
<polygon fill="grey" stroke="grey" stroke-width="2" points="506.164,-611.596 515.063,-605.847 504.521,-604.791 506.164,-611.596"/>
</g>
<!-- 11 -->
<g id="node12" class="node"><title>11</title>
<path fill="none" stroke="#56c1d8" stroke-width="2" stroke-dasharray="5,2" d="M355.284,-252C355.284,-252 320.716,-252 320.716,-252 314.716,-252 308.716,-246 308.716,-240 308.716,-240 308.716,-228 308.716,-228 308.716,-222 314.716,-216 320.716,-216 320.716,-216 355.284,-216 355.284,-216 361.284,-216 367.284,-222 367.284,-228 367.284,-228 367.284,-240 367.284,-240 367.284,-246 361.284,-252 355.284,-252"/>
<text text-anchor="middle" x="338" y="-231" font-family="sans" font-size="10.00">MrPresso</text>
</g>
<!-- 11&#45;&gt;2 -->
<g id="edge11" class="edge"><title>11&#45;&gt;2</title>
<path fill="none" stroke="grey" stroke-width="2" d="M360.494,-215.697C371.955,-206.881 386.058,-196.032 398.484,-186.474"/>
<polygon fill="grey" stroke="grey" stroke-width="2" points="400.972,-188.976 406.764,-180.104 396.704,-183.427 400.972,-188.976"/>
</g>
<!-- 11&#45;&gt;3 -->
<g id="edge13" class="edge"><title>11&#45;&gt;3</title>
<path fill="none" stroke="grey" stroke-width="2" d="M340.887,-215.747C344.096,-197.675 349.789,-168.559 357,-144 359.521,-135.413 362.777,-126.234 365.927,-117.968"/>
<polygon fill="grey" stroke="grey" stroke-width="2" points="369.271,-119.029 369.66,-108.441 362.753,-116.475 369.271,-119.029"/>
</g>
<!-- 11&#45;&gt;7 -->
<g id="edge26" class="edge"><title>11&#45;&gt;7</title>
<path fill="none" stroke="grey" stroke-width="2" d="M308.687,-231.021C272.165,-227.076 209.844,-215.275 171,-180 153.183,-163.82 143.407,-137.879 138.252,-118.168"/>
<polygon fill="grey" stroke="grey" stroke-width="2" points="141.61,-117.161 135.9,-108.237 134.799,-118.774 141.61,-117.161"/>
</g>
<!-- 13 -->
<g id="node14" class="node"><title>13</title>
<path fill="none" stroke="#568ad8" stroke-width="2" stroke-dasharray="5,2" d="M297.875,-180C297.875,-180 192.125,-180 192.125,-180 186.125,-180 180.125,-174 180.125,-168 180.125,-168 180.125,-156 180.125,-156 180.125,-150 186.125,-144 192.125,-144 192.125,-144 297.875,-144 297.875,-144 303.875,-144 309.875,-150 309.875,-156 309.875,-156 309.875,-168 309.875,-168 309.875,-174 303.875,-180 297.875,-180"/>
<text text-anchor="middle" x="245" y="-159" font-family="sans" font-size="10.00">MRPRESSO_wo_outliers</text>
</g>
<!-- 11&#45;&gt;13 -->
<g id="edge36" class="edge"><title>11&#45;&gt;13</title>
<path fill="none" stroke="grey" stroke-width="2" d="M315.011,-215.697C303.186,-206.796 288.608,-195.823 275.821,-186.199"/>
<polygon fill="grey" stroke="grey" stroke-width="2" points="277.819,-183.322 267.724,-180.104 273.609,-188.915 277.819,-183.322"/>
</g>
<!-- 15 -->
<g id="node16" class="node"><title>15</title>
<path fill="none" stroke="#ced856" stroke-width="2" stroke-dasharray="5,2" d="M609.742,-180C609.742,-180 560.258,-180 560.258,-180 554.258,-180 548.258,-174 548.258,-168 548.258,-168 548.258,-156 548.258,-156 548.258,-150 554.258,-144 560.258,-144 560.258,-144 609.742,-144 609.742,-144 615.742,-144 621.742,-150 621.742,-156 621.742,-156 621.742,-168 621.742,-168 621.742,-174 615.742,-180 609.742,-180"/>
<text text-anchor="middle" x="585" y="-159" font-family="sans" font-size="10.00">MR_analysis</text>
</g>
<!-- 11&#45;&gt;15 -->
<g id="edge38" class="edge"><title>11&#45;&gt;15</title>
<path fill="none" stroke="grey" stroke-width="2" d="M367.304,-224.695C409.594,-212.71 488.165,-190.443 538.447,-176.193"/>
<polygon fill="grey" stroke="grey" stroke-width="2" points="539.44,-179.55 548.107,-173.455 537.532,-172.815 539.44,-179.55"/>
</g>
<!-- 12 -->
<g id="node13" class="node"><title>12</title>
<path fill="none" stroke="#56c1d8" stroke-width="2" stroke-dasharray="5,2" d="M709.284,-252C709.284,-252 674.716,-252 674.716,-252 668.716,-252 662.716,-246 662.716,-240 662.716,-240 662.716,-228 662.716,-228 662.716,-222 668.716,-216 674.716,-216 674.716,-216 709.284,-216 709.284,-216 715.284,-216 721.284,-222 721.284,-228 721.284,-228 721.284,-240 721.284,-240 721.284,-246 715.284,-252 709.284,-252"/>
<text text-anchor="middle" x="692" y="-231" font-family="sans" font-size="10.00">MrPresso</text>
</g>
<!-- 12&#45;&gt;2 -->
<g id="edge12" class="edge"><title>12&#45;&gt;2</title>
<path fill="none" stroke="grey" stroke-width="2" d="M662.596,-225.174C624.046,-214.913 555.099,-196.562 502.067,-182.447"/>
<polygon fill="grey" stroke="grey" stroke-width="2" points="502.925,-179.054 492.361,-179.864 501.124,-185.818 502.925,-179.054"/>
</g>
<!-- 12&#45;&gt;3 -->
<g id="edge14" class="edge"><title>12&#45;&gt;3</title>
<path fill="none" stroke="grey" stroke-width="2" d="M662.481,-226.729C630.426,-219.047 578.521,-204.01 539,-180 519.117,-167.921 520.445,-156.772 501,-144 481.485,-131.182 458.357,-120.308 437.392,-111.808"/>
<polygon fill="grey" stroke="grey" stroke-width="2" points="438.519,-108.491 427.933,-108.072 435.948,-115.001 438.519,-108.491"/>
</g>
<!-- 12&#45;&gt;8 -->
<g id="edge31" class="edge"><title>12&#45;&gt;8</title>
<path fill="none" stroke="grey" stroke-width="2" d="M721.373,-231.672C759.796,-228.432 827.136,-217.397 869,-180 886.949,-163.966 896.709,-138.008 901.825,-118.253"/>
<polygon fill="grey" stroke="grey" stroke-width="2" points="905.284,-118.831 904.153,-108.296 898.468,-117.237 905.284,-118.831"/>
</g>
<!-- 14 -->
<g id="node15" class="node"><title>14</title>
<path fill="none" stroke="#568ad8" stroke-width="2" stroke-dasharray="5,2" d="M756.875,-180C756.875,-180 651.125,-180 651.125,-180 645.125,-180 639.125,-174 639.125,-168 639.125,-168 639.125,-156 639.125,-156 639.125,-150 645.125,-144 651.125,-144 651.125,-144 756.875,-144 756.875,-144 762.875,-144 768.875,-150 768.875,-156 768.875,-156 768.875,-168 768.875,-168 768.875,-174 762.875,-180 756.875,-180"/>
<text text-anchor="middle" x="704" y="-159" font-family="sans" font-size="10.00">MRPRESSO_wo_outliers</text>
</g>
<!-- 12&#45;&gt;14 -->
<g id="edge37" class="edge"><title>12&#45;&gt;14</title>
<path fill="none" stroke="grey" stroke-width="2" d="M694.966,-215.697C696.289,-207.983 697.878,-198.712 699.352,-190.112"/>
<polygon fill="grey" stroke="grey" stroke-width="2" points="702.828,-190.552 701.068,-180.104 695.928,-189.369 702.828,-190.552"/>
</g>
<!-- 16 -->
<g id="node17" class="node"><title>16</title>
<path fill="none" stroke="#ced856" stroke-width="2" stroke-dasharray="5,2" d="M847.742,-180C847.742,-180 798.258,-180 798.258,-180 792.258,-180 786.258,-174 786.258,-168 786.258,-168 786.258,-156 786.258,-156 786.258,-150 792.258,-144 798.258,-144 798.258,-144 847.742,-144 847.742,-144 853.742,-144 859.742,-150 859.742,-156 859.742,-156 859.742,-168 859.742,-168 859.742,-174 853.742,-180 847.742,-180"/>
<text text-anchor="middle" x="823" y="-159" font-family="sans" font-size="10.00">MR_analysis</text>
</g>
<!-- 12&#45;&gt;16 -->
<g id="edge39" class="edge"><title>12&#45;&gt;16</title>
<path fill="none" stroke="grey" stroke-width="2" d="M721.399,-217.291C739.242,-207.756 762.284,-195.444 781.913,-184.955"/>
<polygon fill="grey" stroke="grey" stroke-width="2" points="783.777,-187.927 790.947,-180.127 780.478,-181.753 783.777,-187.927"/>
</g>
<!-- 13&#45;&gt;3 -->
<g id="edge15" class="edge"><title>13&#45;&gt;3</title>
<path fill="none" stroke="grey" stroke-width="2" d="M277.291,-143.876C294.869,-134.554 316.809,-122.919 335.629,-112.939"/>
<polygon fill="grey" stroke="grey" stroke-width="2" points="337.39,-115.967 344.585,-108.19 334.111,-109.783 337.39,-115.967"/>
</g>
<!-- 13&#45;&gt;7 -->
<g id="edge27" class="edge"><title>13&#45;&gt;7</title>
<path fill="none" stroke="grey" stroke-width="2" d="M217.602,-143.876C203.093,-134.808 185.084,-123.552 169.415,-113.759"/>
<polygon fill="grey" stroke="grey" stroke-width="2" points="170.839,-110.522 160.504,-108.19 167.129,-116.458 170.839,-110.522"/>
</g>
<!-- 14&#45;&gt;3 -->
<g id="edge16" class="edge"><title>14&#45;&gt;3</title>
<path fill="none" stroke="grey" stroke-width="2" d="M639.139,-145.813C636.39,-145.196 633.668,-144.589 631,-144 569.657,-130.459 499.774,-115.944 448.858,-105.533"/>
<polygon fill="grey" stroke="grey" stroke-width="2" points="449.434,-102.079 438.936,-103.507 448.033,-108.937 449.434,-102.079"/>
</g>
<!-- 14&#45;&gt;8 -->
<g id="edge32" class="edge"><title>14&#45;&gt;8</title>
<path fill="none" stroke="grey" stroke-width="2" d="M753.4,-143.966C786.583,-132.523 829.96,-117.565 862.152,-106.465"/>
<polygon fill="grey" stroke="grey" stroke-width="2" points="863.447,-109.721 871.76,-103.152 861.165,-103.103 863.447,-109.721"/>
</g>
<!-- 15&#45;&gt;4 -->
<g id="edge17" class="edge"><title>15&#45;&gt;4</title>
<path fill="none" stroke="grey" stroke-width="2" d="M575.607,-143.697C571.235,-135.644 565.943,-125.894 561.105,-116.982"/>
<polygon fill="grey" stroke="grey" stroke-width="2" points="564.132,-115.223 556.285,-108.104 557.98,-118.563 564.132,-115.223"/>
</g>
<!-- 15&#45;&gt;5 -->
<g id="edge19" class="edge"><title>15&#45;&gt;5</title>
<path fill="none" stroke="grey" stroke-width="2" d="M602.303,-143.697C610.865,-135.135 621.344,-124.656 630.696,-115.304"/>
<polygon fill="grey" stroke="grey" stroke-width="2" points="633.299,-117.65 637.896,-108.104 628.35,-112.701 633.299,-117.65"/>
</g>
<!-- 15&#45;&gt;6 -->
<g id="edge21" class="edge"><title>15&#45;&gt;6</title>
<path fill="none" stroke="grey" stroke-width="2" d="M621.684,-145.983C645.894,-136.073 677.958,-122.947 704.686,-112.006"/>
<polygon fill="grey" stroke="grey" stroke-width="2" points="706.338,-115.111 714.267,-108.084 703.686,-108.633 706.338,-115.111"/>
</g>
<!-- 16&#45;&gt;4 -->
<g id="edge18" class="edge"><title>16&#45;&gt;4</title>
<path fill="none" stroke="grey" stroke-width="2" d="M786.318,-146.621C783.52,-145.684 780.725,-144.798 778,-144 706.923,-123.181 684.815,-126.084 609.483,-108.266"/>
<polygon fill="grey" stroke="grey" stroke-width="2" points="610.059,-104.805 599.517,-105.863 608.418,-111.61 610.059,-104.805"/>
</g>
<!-- 16&#45;&gt;5 -->
<g id="edge20" class="edge"><title>16&#45;&gt;5</title>
<path fill="none" stroke="grey" stroke-width="2" d="M786.132,-145.638C761.529,-135.387 728.95,-121.812 702.421,-110.759"/>
<polygon fill="grey" stroke="grey" stroke-width="2" points="703.523,-107.426 692.946,-106.811 700.831,-113.888 703.523,-107.426"/>
</g>
<!-- 16&#45;&gt;6 -->
<g id="edge22" class="edge"><title>16&#45;&gt;6</title>
<path fill="none" stroke="grey" stroke-width="2" d="M806.438,-143.697C798.325,-135.22 788.412,-124.864 779.529,-115.583"/>
<polygon fill="grey" stroke="grey" stroke-width="2" points="781.814,-112.908 772.371,-108.104 776.757,-117.749 781.814,-112.908"/>
</g>
<!-- 17&#45;&gt;7 -->
<g id="edge23" class="edge"><title>17&#45;&gt;7</title>
<path fill="none" stroke="grey" stroke-width="2" d="M238.063,-577.21C167.334,-550.965 38,-496.721 38,-451 38,-451 38,-451 38,-233 38,-185.012 75.9439,-140.963 103.871,-115.042"/>
<polygon fill="grey" stroke="grey" stroke-width="2" points="106.354,-117.516 111.443,-108.223 101.67,-112.314 106.354,-117.516"/>
</g>
<!-- 18 -->
<g id="node19" class="node"><title>18</title>
<path fill="none" stroke="#d87556" stroke-width="2" stroke-dasharray="5,2" d="M303.865,-540C303.865,-540 248.135,-540 248.135,-540 242.135,-540 236.135,-534 236.135,-528 236.135,-528 236.135,-516 236.135,-516 236.135,-510 242.135,-504 248.135,-504 248.135,-504 303.865,-504 303.865,-504 309.865,-504 315.865,-510 315.865,-516 315.865,-516 315.865,-528 315.865,-528 315.865,-534 309.865,-540 303.865,-540"/>
<text text-anchor="middle" x="276" y="-519" font-family="sans" font-size="10.00">OutcomeSnps</text>
</g>
<!-- 17&#45;&gt;18 -->
<g id="edge42" class="edge"><title>17&#45;&gt;18</title>
<path fill="none" stroke="grey" stroke-width="2" d="M281.27,-575.697C280.498,-567.983 279.571,-558.712 278.711,-550.112"/>
<polygon fill="grey" stroke="grey" stroke-width="2" points="282.188,-549.706 277.71,-540.104 275.223,-550.403 282.188,-549.706"/>
</g>
<!-- 23 -->
<g id="node24" class="node"><title>23</title>
<path fill="none" stroke="#56d863" stroke-width="2" stroke-dasharray="5,2" d="M358.351,-324C358.351,-324 317.649,-324 317.649,-324 311.649,-324 305.649,-318 305.649,-312 305.649,-312 305.649,-300 305.649,-300 305.649,-294 311.649,-288 317.649,-288 317.649,-288 358.351,-288 358.351,-288 364.351,-288 370.351,-294 370.351,-300 370.351,-300 370.351,-312 370.351,-312 370.351,-318 364.351,-324 358.351,-324"/>
<text text-anchor="middle" x="338" y="-303" font-family="sans" font-size="10.00">Harmonize</text>
</g>
<!-- 17&#45;&gt;23 -->
<g id="edge54" class="edge"><title>17&#45;&gt;23</title>
<path fill="none" stroke="grey" stroke-width="2" d="M301.296,-575.644C310.138,-566.055 319.915,-553.39 325,-540 351.708,-469.67 346.51,-378.779 341.641,-334.158"/>
<polygon fill="grey" stroke="grey" stroke-width="2" points="345.102,-333.625 340.461,-324.101 338.15,-334.441 345.102,-333.625"/>
</g>
<!-- 18&#45;&gt;7 -->
<g id="edge24" class="edge"><title>18&#45;&gt;7</title>
<path fill="none" stroke="grey" stroke-width="2" d="M236.008,-511.824C177.643,-495.792 76,-456.716 76,-379 76,-379 76,-379 76,-233 76,-189.801 99,-144.186 115.78,-116.655"/>
<polygon fill="grey" stroke="grey" stroke-width="2" points="118.835,-118.372 121.19,-108.042 112.907,-114.648 118.835,-118.372"/>
</g>
<!-- 19 -->
<g id="node20" class="node"><title>19</title>
<path fill="none" stroke="#56d89a" stroke-width="2" stroke-dasharray="5,2" d="M303.974,-396C303.974,-396 232.026,-396 232.026,-396 226.026,-396 220.026,-390 220.026,-384 220.026,-384 220.026,-372 220.026,-372 220.026,-366 226.026,-360 232.026,-360 232.026,-360 303.974,-360 303.974,-360 309.974,-360 315.974,-366 315.974,-372 315.974,-372 315.974,-384 315.974,-384 315.974,-390 309.974,-396 303.974,-396"/>
<text text-anchor="middle" x="268" y="-375" font-family="sans" font-size="10.00">ExtractProxySnps</text>
</g>
<!-- 18&#45;&gt;19 -->
<g id="edge45" class="edge"><title>18&#45;&gt;19</title>
<path fill="none" stroke="grey" stroke-width="2" d="M275.387,-503.93C274.707,-486.008 273.506,-457.011 272,-432 271.499,-423.674 270.853,-414.62 270.227,-406.39"/>
<polygon fill="grey" stroke="grey" stroke-width="2" points="273.697,-405.874 269.429,-396.177 266.719,-406.419 273.697,-405.874"/>
</g>
<!-- 26 -->
<g id="node27" class="node"><title>26</title>
<path fill="none" stroke="#56d8b9" stroke-width="2" stroke-dasharray="5,2" d="M250.808,-468C250.808,-468 191.192,-468 191.192,-468 185.192,-468 179.192,-462 179.192,-456 179.192,-456 179.192,-444 179.192,-444 179.192,-438 185.192,-432 191.192,-432 191.192,-432 250.808,-432 250.808,-432 256.808,-432 262.808,-438 262.808,-444 262.808,-444 262.808,-456 262.808,-456 262.808,-462 256.808,-468 250.808,-468"/>
<text text-anchor="middle" x="221" y="-447" font-family="sans" font-size="10.00">FindProxySnps</text>
</g>
<!-- 18&#45;&gt;26 -->
<g id="edge58" class="edge"><title>18&#45;&gt;26</title>
<path fill="none" stroke="grey" stroke-width="2" d="M262.404,-503.697C255.877,-495.389 247.932,-485.277 240.753,-476.141"/>
<polygon fill="grey" stroke="grey" stroke-width="2" points="243.369,-473.805 234.439,-468.104 237.865,-478.13 243.369,-473.805"/>
</g>
<!-- 19&#45;&gt;7 -->
<g id="edge25" class="edge"><title>19&#45;&gt;7</title>
<path fill="none" stroke="grey" stroke-width="2" d="M253.509,-359.923C226.775,-327.357 170.05,-253.089 144,-180 136.911,-160.111 134.246,-136.317 133.307,-118.337"/>
<polygon fill="grey" stroke="grey" stroke-width="2" points="136.801,-118.1 132.927,-108.239 129.806,-118.363 136.801,-118.1"/>
</g>
<!-- 19&#45;&gt;23 -->
<g id="edge55" class="edge"><title>19&#45;&gt;23</title>
<path fill="none" stroke="grey" stroke-width="2" d="M285.303,-359.697C293.865,-351.135 304.344,-340.656 313.696,-331.304"/>
<polygon fill="grey" stroke="grey" stroke-width="2" points="316.299,-333.65 320.896,-324.104 311.35,-328.701 316.299,-333.65"/>
</g>
<!-- 20&#45;&gt;8 -->
<g id="edge28" class="edge"><title>20&#45;&gt;8</title>
<path fill="none" stroke="grey" stroke-width="2" d="M604.814,-588.271C717.183,-575.176 1002,-533.815 1002,-451 1002,-451 1002,-451 1002,-233 1002,-185.012 964.056,-140.963 936.129,-115.042"/>
<polygon fill="grey" stroke="grey" stroke-width="2" points="938.33,-112.314 928.557,-108.223 933.646,-117.516 938.33,-112.314"/>
</g>
<!-- 21 -->
<g id="node22" class="node"><title>21</title>
<path fill="none" stroke="#d87556" stroke-width="2" stroke-dasharray="5,2" d="M657.865,-540C657.865,-540 602.135,-540 602.135,-540 596.135,-540 590.135,-534 590.135,-528 590.135,-528 590.135,-516 590.135,-516 590.135,-510 596.135,-504 602.135,-504 602.135,-504 657.865,-504 657.865,-504 663.865,-504 669.865,-510 669.865,-516 669.865,-516 669.865,-528 669.865,-528 669.865,-534 663.865,-540 657.865,-540"/>
<text text-anchor="middle" x="630" y="-519" font-family="sans" font-size="10.00">OutcomeSnps</text>
</g>
<!-- 20&#45;&gt;21 -->
<g id="edge49" class="edge"><title>20&#45;&gt;21</title>
<path fill="none" stroke="grey" stroke-width="2" d="M577.303,-575.697C585.865,-567.135 596.344,-556.656 605.696,-547.304"/>
<polygon fill="grey" stroke="grey" stroke-width="2" points="608.299,-549.65 612.896,-540.104 603.35,-544.701 608.299,-549.65"/>
</g>
<!-- 24 -->
<g id="node25" class="node"><title>24</title>
<path fill="none" stroke="#56d863" stroke-width="2" stroke-dasharray="5,2" d="M688.351,-324C688.351,-324 647.649,-324 647.649,-324 641.649,-324 635.649,-318 635.649,-312 635.649,-312 635.649,-300 635.649,-300 635.649,-294 641.649,-288 647.649,-288 647.649,-288 688.351,-288 688.351,-288 694.351,-288 700.351,-294 700.351,-300 700.351,-300 700.351,-312 700.351,-312 700.351,-318 694.351,-324 688.351,-324"/>
<text text-anchor="middle" x="668" y="-303" font-family="sans" font-size="10.00">Harmonize</text>
</g>
<!-- 20&#45;&gt;24 -->
<g id="edge56" class="edge"><title>20&#45;&gt;24</title>
<path fill="none" stroke="grey" stroke-width="2" d="M559.372,-575.972C558.708,-534.839 562.159,-428.416 611,-360 618.545,-349.432 628.456,-339.33 637.895,-330.833"/>
<polygon fill="grey" stroke="grey" stroke-width="2" points="640.395,-333.298 645.651,-324.098 635.805,-328.013 640.395,-333.298"/>
</g>
<!-- 21&#45;&gt;8 -->
<g id="edge29" class="edge"><title>21&#45;&gt;8</title>
<path fill="none" stroke="grey" stroke-width="2" d="M669.956,-521.688C758.611,-520.92 964,-505.491 964,-379 964,-379 964,-379 964,-233 964,-189.801 941,-144.186 924.22,-116.655"/>
<polygon fill="grey" stroke="grey" stroke-width="2" points="927.093,-114.648 918.81,-108.042 921.165,-118.372 927.093,-114.648"/>
</g>
<!-- 22 -->
<g id="node23" class="node"><title>22</title>
<path fill="none" stroke="#56d89a" stroke-width="2" stroke-dasharray="5,2" d="M703.974,-396C703.974,-396 632.026,-396 632.026,-396 626.026,-396 620.026,-390 620.026,-384 620.026,-384 620.026,-372 620.026,-372 620.026,-366 626.026,-360 632.026,-360 632.026,-360 703.974,-360 703.974,-360 709.974,-360 715.974,-366 715.974,-372 715.974,-372 715.974,-384 715.974,-384 715.974,-390 709.974,-396 703.974,-396"/>
<text text-anchor="middle" x="668" y="-375" font-family="sans" font-size="10.00">ExtractProxySnps</text>
</g>
<!-- 21&#45;&gt;22 -->
<g id="edge52" class="edge"><title>21&#45;&gt;22</title>
<path fill="none" stroke="grey" stroke-width="2" d="M653.305,-503.819C663.901,-494.538 675.32,-482.094 681,-468 689.039,-448.051 684.665,-423.805 678.907,-405.661"/>
<polygon fill="grey" stroke="grey" stroke-width="2" points="682.141,-404.305 675.539,-396.018 675.532,-406.613 682.141,-404.305"/>
</g>
<!-- 27 -->
<g id="node28" class="node"><title>27</title>
<path fill="none" stroke="#56d8b9" stroke-width="2" stroke-dasharray="5,2" d="M659.808,-468C659.808,-468 600.192,-468 600.192,-468 594.192,-468 588.192,-462 588.192,-456 588.192,-456 588.192,-444 588.192,-444 588.192,-438 594.192,-432 600.192,-432 600.192,-432 659.808,-432 659.808,-432 665.808,-432 671.808,-438 671.808,-444 671.808,-444 671.808,-456 671.808,-456 671.808,-462 665.808,-468 659.808,-468"/>
<text text-anchor="middle" x="630" y="-447" font-family="sans" font-size="10.00">FindProxySnps</text>
</g>
<!-- 21&#45;&gt;27 -->
<g id="edge59" class="edge"><title>21&#45;&gt;27</title>
<path fill="none" stroke="grey" stroke-width="2" d="M630,-503.697C630,-495.983 630,-486.712 630,-478.112"/>
<polygon fill="grey" stroke="grey" stroke-width="2" points="633.5,-478.104 630,-468.104 626.5,-478.104 633.5,-478.104"/>
</g>
<!-- 22&#45;&gt;8 -->
<g id="edge30" class="edge"><title>22&#45;&gt;8</title>
<path fill="none" stroke="grey" stroke-width="2" d="M699.051,-359.93C749.339,-330.472 847.632,-264.987 894,-180 904.315,-161.093 907.289,-136.723 907.838,-118.267"/>
<polygon fill="grey" stroke="grey" stroke-width="2" points="911.338,-118.196 907.918,-108.169 904.338,-118.141 911.338,-118.196"/>
</g>
<!-- 22&#45;&gt;24 -->
<g id="edge57" class="edge"><title>22&#45;&gt;24</title>
<path fill="none" stroke="grey" stroke-width="2" d="M668,-359.697C668,-351.983 668,-342.712 668,-334.112"/>
<polygon fill="grey" stroke="grey" stroke-width="2" points="671.5,-334.104 668,-324.104 664.5,-334.104 671.5,-334.104"/>
</g>
<!-- 23&#45;&gt;11 -->
<g id="edge34" class="edge"><title>23&#45;&gt;11</title>
<path fill="none" stroke="grey" stroke-width="2" d="M338,-287.697C338,-279.983 338,-270.712 338,-262.112"/>
<polygon fill="grey" stroke="grey" stroke-width="2" points="341.5,-262.104 338,-252.104 334.5,-262.104 341.5,-262.104"/>
</g>
<!-- 24&#45;&gt;12 -->
<g id="edge35" class="edge"><title>24&#45;&gt;12</title>
<path fill="none" stroke="grey" stroke-width="2" d="M673.933,-287.697C676.606,-279.898 679.826,-270.509 682.801,-261.829"/>
<polygon fill="grey" stroke="grey" stroke-width="2" points="686.203,-262.699 686.136,-252.104 679.582,-260.429 686.203,-262.699"/>
</g>
<!-- 25 -->
<g id="node26" class="node"><title>25</title>
<path fill="none" stroke="#5673d8" stroke-width="2" stroke-dasharray="5,2" d="M452.44,-612C452.44,-612 371.56,-612 371.56,-612 365.56,-612 359.56,-606 359.56,-600 359.56,-600 359.56,-588 359.56,-588 359.56,-582 365.56,-576 371.56,-576 371.56,-576 452.44,-576 452.44,-576 458.44,-576 464.44,-582 464.44,-588 464.44,-588 464.44,-600 464.44,-600 464.44,-606 458.44,-612 452.44,-612"/>
<text text-anchor="middle" x="412" y="-596" font-family="sans" font-size="10.00">FormatOutcome</text>
<text text-anchor="middle" x="412" y="-586" font-family="sans" font-size="10.00">OutcomeCode: load</text>
</g>
<!-- 25&#45;&gt;18 -->
<g id="edge43" class="edge"><title>25&#45;&gt;18</title>
<path fill="none" stroke="grey" stroke-width="2" d="M378.731,-575.876C360.537,-566.512 337.809,-554.814 318.36,-544.803"/>
<polygon fill="grey" stroke="grey" stroke-width="2" points="319.89,-541.654 309.397,-540.19 316.687,-547.878 319.89,-541.654"/>
</g>
<!-- 25&#45;&gt;19 -->
<g id="edge44" class="edge"><title>25&#45;&gt;19</title>
<path fill="none" stroke="grey" stroke-width="2" d="M400.459,-575.849C375.234,-538.362 315.069,-448.949 285.295,-404.702"/>
<polygon fill="grey" stroke="grey" stroke-width="2" points="288.082,-402.575 279.596,-396.232 282.275,-406.483 288.082,-402.575"/>
</g>
<!-- 25&#45;&gt;21 -->
<g id="edge50" class="edge"><title>25&#45;&gt;21</title>
<path fill="none" stroke="grey" stroke-width="2" d="M464.494,-576.144C499.697,-564.84 545.77,-550.046 580.363,-538.938"/>
<polygon fill="grey" stroke="grey" stroke-width="2" points="581.799,-542.153 590.251,-535.764 579.659,-535.488 581.799,-542.153"/>
</g>
<!-- 25&#45;&gt;22 -->
<g id="edge51" class="edge"><title>25&#45;&gt;22</title>
<path fill="none" stroke="grey" stroke-width="2" d="M427.45,-575.674C455.651,-544.629 518.183,-478.436 579,-432 593.697,-420.779 610.945,-410.021 626.324,-401.166"/>
<polygon fill="grey" stroke="grey" stroke-width="2" points="628.151,-404.154 635.13,-396.182 624.703,-398.062 628.151,-404.154"/>
</g>
<!-- 26&#45;&gt;19 -->
<g id="edge46" class="edge"><title>26&#45;&gt;19</title>
<path fill="none" stroke="grey" stroke-width="2" d="M232.618,-431.697C238.139,-423.474 244.847,-413.483 250.932,-404.421"/>
<polygon fill="grey" stroke="grey" stroke-width="2" points="253.847,-406.358 256.516,-396.104 248.035,-402.456 253.847,-406.358"/>
</g>
<!-- 27&#45;&gt;22 -->
<g id="edge53" class="edge"><title>27&#45;&gt;22</title>
<path fill="none" stroke="grey" stroke-width="2" d="M639.393,-431.697C643.765,-423.644 649.057,-413.894 653.895,-404.982"/>
<polygon fill="grey" stroke="grey" stroke-width="2" points="657.02,-406.563 658.715,-396.104 650.868,-403.223 657.02,-406.563"/>
</g>
</g>
</svg>
